<?xml version="1.0" standalone="no"?>
<!DOCTYPE svg PUBLIC "-//W3C//DTD SVG 20010904//EN"
 "http://www.w3.org/TR/2001/REC-SVG-20010904/DTD/svg10.dtd">
<svg version="1.0" xmlns="http://www.w3.org/2000/svg"
 width="500.000000pt" height="500.000000pt" viewBox="0 0 500.000000 500.000000"
 preserveAspectRatio="xMidYMid meet">
<metadata>
Created by potrace 1.14, written by Peter Selinger 2001-2017
</metadata>
<g transform="translate(0.000000,500.000000) scale(0.100000,-0.100000)"
fill="#000000" stroke="none">
<path d="M0 2500 l0 -2500 2500 0 2500 0 0 2500 0 2500 -2500 0 -2500 0 0
-2500z m1170 956 c275 -50 503 -241 565 -476 22 -81 20 -109 -7 -114 -13 -3
-96 -10 -186 -16 -117 -8 -167 -8 -176 0 -8 6 -16 27 -20 48 -9 57 -62 157
-103 193 -65 56 -117 74 -218 74 -82 0 -97 -3 -157 -33 -139 -68 -205 -204
-229 -470 -18 -200 12 -446 68 -556 83 -164 269 -231 472 -170 101 30 209 141
257 262 14 37 20 42 49 42 46 0 255 -48 272 -62 22 -18 10 -81 -32 -163 -93
-183 -257 -321 -460 -385 -94 -30 -326 -39 -431 -17 -335 71 -556 315 -631
696 -24 125 -22 366 4 491 66 308 233 520 488 615 136 52 325 68 475 41z
m3129 -6 c276 -57 488 -247 548 -493 14 -59 14 -70 2 -81 -16 -16 -367 -43
-379 -29 -4 4 -17 40 -29 80 -50 169 -177 256 -350 239 -164 -15 -271 -125
-323 -334 -31 -120 -33 -453 -5 -577 59 -254 218 -373 447 -336 143 23 244
102 314 245 44 90 37 89 214 51 128 -28 147 -40 136 -90 -11 -49 -49 -129 -93
-194 -110 -161 -285 -277 -478 -317 -97 -20 -329 -15 -416 10 -377 106 -597
447 -597 926 0 402 157 696 445 835 172 82 370 105 564 65z m-2170 -15 c6 -6
103 -296 217 -645 113 -349 209 -639 214 -644 12 -12 -8 -70 219 651 174 552
201 629 222 640 30 16 292 18 320 3 10 -6 19 -19 19 -30 0 -38 -592 -1745
-613 -1767 -20 -22 -26 -23 -203 -23 -100 0 -190 3 -199 6 -8 4 -22 19 -30 34
-22 42 -595 1727 -595 1749 0 11 8 25 18 31 23 13 397 9 411 -5z"/>
</g>
</svg>
